<svg xmlns="http://www.w3.org/2000/svg" width="35.317" height="33.641" viewBox="0 0 35.317 33.641">
  <path id="ico_line" d="M-19.2,660.842a12.444,12.444,0,0,1-2.58,7.9,25.7,25.7,0,0,1-3.766,3.974,65.614,65.614,0,0,1-9.509,6.775c-.688.409-1.426.733-2.149,1.08a1.414,1.414,0,0,1-.545.132c-.467.02-.706-.209-.652-.758.05-.51.147-1.015.233-1.521a5.7,5.7,0,0,0,.089-1.721,1.079,1.079,0,0,0-.628-.836,4.435,4.435,0,0,0-1.484-.429,19.958,19.958,0,0,1-4.529-1.224,17.373,17.373,0,0,1-4.853-2.881,13.484,13.484,0,0,1-4.672-7.467,11.194,11.194,0,0,1-.242-3.224,12.423,12.423,0,0,1,2.8-7.016,16.689,16.689,0,0,1,6.507-4.868,20.291,20.291,0,0,1,7.149-1.661,20.461,20.461,0,0,1,10.907,2.339,15.436,15.436,0,0,1,6.294,5.931A11.584,11.584,0,0,1-19.2,660.842Zm-17.71.058,3.485,4.748a1,1,0,0,0,.762.462.988.988,0,0,0,1.022-1.058q0-3.409,0-6.82a1.262,1.262,0,0,0,0-.165.953.953,0,0,0-.622-.83.9.9,0,0,0-.99.2,1.08,1.08,0,0,0-.316.837q0,1.89,0,3.778v.311c-.074-.09-.113-.134-.147-.182q-1.13-1.54-2.259-3.079l-1.078-1.475a.953.953,0,0,0-.983-.437.881.881,0,0,0-.729.637,1.808,1.808,0,0,0-.065.512q-.005,3.314,0,6.628a1.648,1.648,0,0,0,.064.49.963.963,0,0,0,1.033.655,1.015,1.015,0,0,0,.826-.964c.007-.831,0-1.663,0-2.495Zm8.362-1.823h.246c.776,0,1.552,0,2.328,0a.93.93,0,0,0,.913-.947.919.919,0,0,0-.913-.95q-1.783-.005-3.564,0a.9.9,0,0,0-.9.9q0,3.551,0,7.1a.925.925,0,0,0,.91.926q1.781.005,3.563,0a.943.943,0,0,0,.9-.915.9.9,0,0,0-.869-.983c-.783-.014-1.568-.007-2.352-.01h-.267v-1.609h.25q1.141,0,2.281,0a.941.941,0,0,0,.958-.907.909.909,0,0,0-.912-.994c-.768-.012-1.537-.006-2.3-.007h-.27ZM-46.317,664.2v-.312q0-2.863,0-5.727a.961.961,0,0,0-1.011-.986.945.945,0,0,0-.9,1.02q0,3.446,0,6.892c0,.056,0,.111.007.166a.946.946,0,0,0,.895.855c1.205.007,2.409.009,3.613,0a.956.956,0,0,0,.872-1.158.913.913,0,0,0-.957-.745C-44.626,664.2-45.456,664.2-46.317,664.2Zm6.227-2.554q0-1.722,0-3.444a1,1,0,0,0-.65-.979.973.973,0,0,0-1.284,1q-.014,3.419,0,6.841a1.264,1.264,0,0,0,.122.523.96.96,0,0,0,1.029.511,1.02,1.02,0,0,0,.778-.981C-40.088,663.963-40.09,662.806-40.09,661.65Z" transform="translate(54.512 -647.062)" fill="#1c1c1c" fill-rule="evenodd"/>
</svg>
