<svg xmlns="http://www.w3.org/2000/svg" viewBox="0 0 25.07 25.07"><defs><style>.cls-1{fill:#000;}</style></defs><title>ico_insta</title><g id="レイヤー_2" data-name="レイヤー 2"><g id="レイヤー_1-2" data-name="レイヤー 1"><path class="cls-1" d="M18.1,0H7A7,7,0,0,0,0,7V18.1a7,7,0,0,0,7,7H18.1a7,7,0,0,0,7-7V7a7,7,0,0,0-7-7m4.65,18.1a4.66,4.66,0,0,1-4.65,4.65H7A4.65,4.65,0,0,1,2.33,18.1V7A4.65,4.65,0,0,1,7,2.32H18.1A4.66,4.66,0,0,1,22.75,7Z"/><path class="cls-1" d="M12.54,6.14A6.48,6.48,0,1,0,19,12.62a6.49,6.49,0,0,0-6.47-6.48m0,10.63a4.15,4.15,0,1,1,4.15-4.15,4.15,4.15,0,0,1-4.15,4.15"/><path class="cls-1" d="M19.26,4.32a1.5,1.5,0,1,0,1.5,1.49,1.49,1.49,0,0,0-1.5-1.49"/></g></g></svg>
