<svg xmlns="http://www.w3.org/2000/svg" width="36.813" height="39.097" viewBox="0 0 36.813 39.097"><path d="M51,10.708A3.969,3.969,0,0,0,48.112,9.1l-23.8-1.885-.433-2.451A5.276,5.276,0,0,0,19.46.46L19.028.4,16.455.014a1.312,1.312,0,0,0-.385,2.6h0l3.005.445v0A2.651,2.651,0,0,1,21.3,5.219L25.374,28.3a4.533,4.533,0,0,0,4.464,3.746H46.576a1.312,1.312,0,0,0,0-2.623H29.838a1.911,1.911,0,0,1-1.882-1.579l-.57-3.23H46.045a3.965,3.965,0,0,0,3.864-3.074l1.754-7.6A3.964,3.964,0,0,0,51,10.708Z" transform="translate(-14.951 0)" fill="#fff"/><path d="M188.9,438.122a2.821,2.821,0,1,0,2.821,2.821A2.821,2.821,0,0,0,188.9,438.122Z" transform="translate(-173.01 -404.667)" fill="#fff"/><path d="M353.009,438.122a2.821,2.821,0,1,0,2.821,2.821A2.821,2.821,0,0,0,353.009,438.122Z" transform="translate(-324.59 -404.667)" fill="#fff"/></svg>