<svg xmlns="http://www.w3.org/2000/svg" width="57.55" height="63.303" viewBox="0 0 57.55 63.303"><path d="M79.642,38.316a12.7,12.7,0,0,0-2.075-3.273c-.392-.46-.8-.885-1.209-1.306a1.576,1.576,0,0,0-.353-1.4l.008,0a1.433,1.433,0,0,1-.085-.375,7.807,7.807,0,0,1-.046-.931c0-.962.1-2.3.1-3.844a20.988,20.988,0,0,0-.947-6.634A16.96,16.96,0,0,0,70.42,13.4,20.716,20.716,0,0,0,61.006,8.45c-.1-.025-.207-.044-.307-.07A5.359,5.359,0,0,0,52.04,2.071a5.36,5.36,0,0,0-8.659,6.31c-.1.025-.2.044-.307.07A20.7,20.7,0,0,0,33.66,13.4a16.979,16.979,0,0,0-4.615,7.144,21.036,21.036,0,0,0-.945,6.634c0,1.542.1,2.878.1,3.841a5.926,5.926,0,0,1-.079,1.117.8.8,0,0,1-.052.189l0,0,.006,0a1.578,1.578,0,0,0-.352,1.4c-.135.135-.269.274-.4.413a13.913,13.913,0,0,0-2.88,4.165A16.9,16.9,0,0,0,23.265,45.1a14.917,14.917,0,0,0,2.169,7.94c2.125,3.45,5.682,6.016,10.221,7.714A47.275,47.275,0,0,0,52.04,63.3c8.369,0,15.464-1.509,20.578-4.54a17.28,17.28,0,0,0,6.027-5.726,14.916,14.916,0,0,0,2.169-7.94A16.9,16.9,0,0,0,79.642,38.316ZM56.247,3.222A2.15,2.15,0,1,1,54.1,5.371,2.155,2.155,0,0,1,56.247,3.222Zm-8.417,0a2.15,2.15,0,1,1-2.148,2.148A2.155,2.155,0,0,1,47.83,3.222ZM72.7,29.654a18.794,18.794,0,0,1-2.272-4.269c-1.511-3.941-3.719-6.723-6.788-8.419s-6.872-2.322-11.595-2.322-8.527.622-11.595,2.322-5.278,4.478-6.788,8.419a19.118,19.118,0,0,1-2.272,4.277c-.031-.784-.064-1.6-.062-2.481a17.868,17.868,0,0,1,.786-5.629,13.7,13.7,0,0,1,3.761-5.8,17.453,17.453,0,0,1,7.977-4.173,34.4,34.4,0,0,1,8.193-.835,34.391,34.391,0,0,1,8.193.835,17.463,17.463,0,0,1,7.977,4.173,13.719,13.719,0,0,1,3.761,5.8,17.857,17.857,0,0,1,.786,5.629C72.759,28.058,72.726,28.873,72.7,29.654Z" transform="translate(-23.265)" fill="#9a7330"/></svg>