<svg xmlns="http://www.w3.org/2000/svg" width="59.035" height="59.035" viewBox="0 0 59.035 59.035"><path d="M237.3,205.719h-3.362v6.769H237.3a3.414,3.414,0,1,0,0-6.769Z" transform="translate(-206.964 -181.999)" fill="#9a7330"/><path d="M96.782,76.031a20.751,20.751,0,1,0,20.751,20.751A20.772,20.772,0,0,0,96.782,76.031Zm.818,25.482H94.238v4.929a1.715,1.715,0,0,1-1.715,1.715h-.861a1.715,1.715,0,0,1-1.715-1.715v-17.5a1.714,1.714,0,0,1,1.715-1.713H97.6c4.495,0,8.154,3.205,8.154,7.145S102.095,101.513,97.6,101.513Z" transform="translate(-67.264 -67.264)" fill="#9a7330"/><path d="M29.518,0A29.518,29.518,0,1,0,59.035,29.518,29.519,29.519,0,0,0,29.518,0Zm0,52.344A22.826,22.826,0,1,1,52.344,29.518,22.853,22.853,0,0,1,29.518,52.344Z" fill="#9a7330"/></svg>