<svg xmlns="http://www.w3.org/2000/svg" width="63.55" height="58.07" viewBox="0 0 63.55 58.07"><g transform="translate(0 -22.074)"><path d="M113.892,46.853a5.135,5.135,0,0,0,5.135-5.134L120.9,22.074h-8.216l-3.929,19.645A5.134,5.134,0,0,0,113.892,46.853Z" transform="translate(-95.478)" fill="#9a7330"/><path d="M222.65,46.853a5.135,5.135,0,0,0,5.134-5.134l-1.027-19.645h-8.215l-1.027,19.645A5.135,5.135,0,0,0,222.65,46.853Z" transform="translate(-190.875)" fill="#9a7330"/><path d="M319.229,46.854a5.135,5.135,0,0,0,5.134-5.134l-3.93-19.645h-8.215l1.875,19.645A5.134,5.134,0,0,0,319.229,46.854Z" transform="translate(-274.094 -0.001)" fill="#9a7330"/><path d="M57.194,22.074H49.552L54,40.349A4.775,4.775,0,0,0,57.6,44.977V76.148h-7.2V58.04H34.327V76.148H5.945V44.976a4.774,4.774,0,0,0,3.607-4.627L14,22.074H6.355L0,40.349a4.764,4.764,0,0,0,1.948,3.843V80.144H61.6V44.192a4.764,4.764,0,0,0,1.948-3.843Z" transform="translate(0 0)" fill="#9a7330"/><rect width="13.394" height="13.393" transform="translate(12.131 52.384)" fill="#9a7330"/></g></svg>