<svg xmlns="http://www.w3.org/2000/svg" width="76" height="59.448" viewBox="0 0 76 59.448"><g transform="translate(0 -60.446)"><path d="M276.2,60.446H239.759a2.179,2.179,0,0,0-2.141,2.215v34.8a2.179,2.179,0,0,0,2.141,2.215H276.2a2.179,2.179,0,0,0,2.142-2.215v-34.8A2.179,2.179,0,0,0,276.2,60.446Z" transform="translate(-202.347)" fill="#9a7330"/><path d="M76.685,354.34a8.608,8.608,0,1,0,8.608,8.607A8.609,8.609,0,0,0,76.685,354.34Zm0,12.482a3.874,3.874,0,1,1,3.873-3.876A3.875,3.875,0,0,1,76.685,366.822Z" transform="translate(-59.365 -251.662)" fill="#9a7330"/><path d="M76.685,354.34a8.608,8.608,0,1,0,8.608,8.607A8.609,8.609,0,0,0,76.685,354.34Zm0,12.482a3.874,3.874,0,1,1,3.873-3.876A3.875,3.875,0,0,1,76.685,366.822Z" transform="translate(-16.365 -251.662)" fill="#9a7330"/><path d="M29.705,128.623H13.434a1.779,1.779,0,0,0-1.37.643L.414,143.243A1.776,1.776,0,0,0,0,144.386v18.671a1.785,1.785,0,0,0,1.786,1.786H7.254a11.02,11.02,0,0,1,20.132,0h4.107V130.409A1.787,1.787,0,0,0,29.705,128.623ZM6.521,144.57a1.837,1.837,0,0,1,.412-1.161l7.437-9.158a1.842,1.842,0,0,1,1.43-.681h7.284a1.841,1.841,0,0,1,1.841,1.842V145.8a1.841,1.841,0,0,1-1.841,1.841H8.361a1.841,1.841,0,0,1-1.84-1.841Z" transform="translate(0 -58.057)" fill="#9a7330"/><path d="M237.773,338.792a1,1,0,0,0-1,1v3.014a1,1,0,0,0,1,1H251.5a11.089,11.089,0,0,1,4.515-5.023Z" transform="translate(-201.624 -237.029)" fill="#9a7330"/><path d="M450.571,338.792h-9.38a11.091,11.091,0,0,1,4.515,5.023h4.864a1,1,0,0,0,1-1V339.8A1,1,0,0,0,450.571,338.792Z" transform="translate(-375.702 -237.029)" fill="#9a7330"/></g></svg>