<svg xmlns="http://www.w3.org/2000/svg" width="57.597" height="62" viewBox="0 0 57.597 62"><g transform="translate(-18.178)"><path d="M70.1,16.874l-4.774-.025c4.213-2.58,6.094-7.579,4.223-11.687A9.182,9.182,0,0,0,61.186,0a9.4,9.4,0,0,0-4.512,1.152,24.068,24.068,0,0,0-7.561,6.663l-.1.13q-.435.577-.826,1.152c-.106.154-.213.305-.318.462s-.217.34-.324.51c-.193.3-.389.6-.576.907a25.945,25.945,0,0,0-9.69-9.824A9.4,9.4,0,0,0,32.767,0a9.182,9.182,0,0,0-8.361,5.162,9.073,9.073,0,0,0,2.318,10.2,11.111,11.111,0,0,0,1.9,1.508H18.178V29.8a.471.471,0,0,0,.472.472H43.38V16.96h7.193V30.275H75.3a.471.471,0,0,0,.471-.472V16.874ZM39.914,13.619a18.348,18.348,0,0,1-7.631-1.49A4.785,4.785,0,0,1,29.868,9.78a2.716,2.716,0,0,1-.088-2.172,3.335,3.335,0,0,1,2.987-1.7,3.5,3.5,0,0,1,1.69.434,19.011,19.011,0,0,1,6.47,6.124c.236.355.468.72.694,1.1C41.07,13.6,40.5,13.619,39.914,13.619ZM64.085,9.78a4.785,4.785,0,0,1-2.415,2.349,18.347,18.347,0,0,1-7.631,1.49c-.518,0-1.019-.022-1.51-.051-.068-.008-.137-.01-.205-.019A19.8,19.8,0,0,1,59.5,6.339a3.5,3.5,0,0,1,1.69-.434,3.335,3.335,0,0,1,2.987,1.7A2.715,2.715,0,0,1,64.085,9.78Z" transform="translate(0 0)" fill="#9a7330"/><path d="M76.16,301.279a6.87,6.87,0,0,0,6.87,6.87H94.341V280.062H76.16Z" transform="translate(-50.961 -246.148)" fill="#9a7330"/><path d="M285.7,308.148h11.312a6.869,6.869,0,0,0,6.869-6.87V280.062H285.7Z" transform="translate(-235.126 -246.148)" fill="#9a7330"/></g></svg>