<svg xmlns="http://www.w3.org/2000/svg" width="59.278" height="59.278" viewBox="0 0 59.278 59.278"><path d="M29.639,0A29.639,29.639,0,1,0,59.278,29.639,29.639,29.639,0,0,0,29.639,0ZM24.044,43.855a3.692,3.692,0,1,1,3.692,3.691A3.693,3.693,0,0,1,24.044,43.855ZM39.784,25.338a9.945,9.945,0,0,1-1.7,2.936,14.474,14.474,0,0,1-4.335,3.362c-.894.483-1.683.855-2.173,1.131a2.322,2.322,0,0,0-.609.443.731.731,0,0,0-.173.327,2.253,2.253,0,0,0-.065.589v1.449a1.358,1.358,0,0,1-1.357,1.358H26.1a1.359,1.359,0,0,1-1.358-1.358V34.126a8.214,8.214,0,0,1,.278-2.174,6.725,6.725,0,0,1,.869-1.933,7.706,7.706,0,0,1,2.777-2.487c.857-.472,1.7-.863,2.491-1.306a9.208,9.208,0,0,0,2-1.432,4.316,4.316,0,0,0,.821-1.1,4.509,4.509,0,0,0,.462-2.129,2.383,2.383,0,0,0-.3-1.089,4.556,4.556,0,0,0-1.073-1.307,6.256,6.256,0,0,0-4.058-1.45,8.07,8.07,0,0,0-4.12,1,3.416,3.416,0,0,0-1.277,1.111,1.359,1.359,0,0,1-1.74.036l-2.514-2.014a1.357,1.357,0,0,1-.039-2.087,7.92,7.92,0,0,1,2.6-2.244,14.083,14.083,0,0,1,7.09-1.786,12.363,12.363,0,0,1,6.283,1.7A10.912,10.912,0,0,1,39.441,17.7a8.34,8.34,0,0,1,.988,3.865A10.846,10.846,0,0,1,39.784,25.338Z" fill="#9a7330"/></svg>