<svg xmlns="http://www.w3.org/2000/svg" width="27.188" height="37.067" viewBox="0 0 27.188 37.067"><g transform="translate(-68.235 -0.003)"><path d="M81.829,8.7,73.794.926a3.279,3.279,0,0,0-5.559,2.358V23.12a4.922,4.922,0,0,0,1.5,3.536l9.814,9.492a3.279,3.279,0,0,0,4.56,0l9.816-9.492a4.922,4.922,0,0,0,1.5-3.536V3.283A3.279,3.279,0,0,0,89.864.926Zm8.966,13.853a1.637,1.637,0,0,1-.5,1.179l-8.466,8.189V15.135l1.609-1.557,5.968-5.772a.82.82,0,0,1,1.389.589Z" transform="translate(0 0)" fill="#858585"/></g></svg>